<svg width="96" height="96" viewBox="0 0 96 96" fill="none" xmlns="http://www.w3.org/2000/svg">
<path d="M42.1602 87.7603C41.2402 87.7603 40.3601 87.3603 39.7601 86.5603L35.7201 81.1603C34.8801 80.0403 33.7602 79.4002 32.5602 79.3202C31.3602 79.2402 30.1601 79.8003 29.2001 80.8003C23.4001 87.0003 19.0001 86.4803 16.8801 85.6803C14.7201 84.8403 11.0801 82.0802 11.0801 73.2002V28.1603C11.0801 10.4003 16.2001 5.00024 32.9601 5.00024H63.1601C79.9202 5.00024 85.0402 10.4003 85.0402 28.1603V45.2002C85.0402 46.8402 83.6802 48.2002 82.0402 48.2002C80.4002 48.2002 79.0402 46.8402 79.0402 45.2002V28.1603C79.0402 13.7203 76.5201 11.0002 63.1601 11.0002H32.9601C19.6001 11.0002 17.0801 13.7203 17.0801 28.1603V73.2002C17.0801 77.4002 18.1201 79.7202 19.0801 80.0802C19.8001 80.3602 21.7602 79.9602 24.8002 76.7202C27.0002 74.4002 29.8801 73.1602 32.8801 73.3202C35.8401 73.4802 38.6401 75.0403 40.5201 77.5603L44.6001 82.9602C45.6001 84.2802 45.3201 86.1603 44.0001 87.1603C43.4001 87.6003 42.7602 87.7603 42.1602 87.7603Z" fill="#DDDDDD"/>
<path d="M72.8 88.6C64.08 88.6 57 81.5201 57 72.8C57 64.08 64.08 57 72.8 57C81.5201 57 88.6 64.08 88.6 72.8C88.6 81.5201 81.5201 88.6 72.8 88.6ZM72.8 63C67.4 63 63 67.4 63 72.8C63 78.2 67.4 82.6 72.8 82.6C78.2 82.6 82.6 78.2 82.6 72.8C82.6 67.4 78.2 63 72.8 63Z" fill="#DDDDDD"/>
<path d="M87.9998 91C87.2398 91 86.4798 90.72 85.8798 90.12L81.8798 86.12C80.7198 84.96 80.7198 83.04 81.8798 81.88C83.0398 80.72 84.9598 80.72 86.1198 81.88L90.1198 85.88C91.2798 87.04 91.2798 88.96 90.1198 90.12C89.5198 90.72 88.7598 91 87.9998 91Z" fill="#DDDDDD"/>
<path d="M64 30.9998H32C30.36 30.9998 29 29.6398 29 27.9998C29 26.3598 30.36 24.9998 32 24.9998H64C65.64 24.9998 67 26.3598 67 27.9998C67 29.6398 65.64 30.9998 64 30.9998Z" fill="#DDDDDD"/>
<path d="M60 47.0002H36C34.36 47.0002 33 45.6402 33 44.0002C33 42.3602 34.36 41.0002 36 41.0002H60C61.64 41.0002 63 42.3602 63 44.0002C63 45.6402 61.64 47.0002 60 47.0002Z" fill="#DDDDDD"/>
</svg>
