<svg width="370" height="328" viewBox="0 0 370 328" fill="none" xmlns="http://www.w3.org/2000/svg">
<rect x="89" y="165.387" width="16" height="16" rx="2" fill="#48C3BE"/>
<rect x="309.146" y="300.547" width="15" height="15" rx="1.5" transform="rotate(-11.5899 309.146 300.547)" stroke="#F27370"/>
<rect x="309" y="19.6265" width="8" height="8" rx="2" transform="rotate(-32 309 19.6265)" fill="#FF94C7"/>
<rect x="358.488" y="321.115" width="8" height="8" rx="2" transform="rotate(-32 358.488 321.115)" fill="#FFCE76"/>
<rect x="151" y="239.458" width="8" height="8" rx="2" transform="rotate(-15 151 239.458)" fill="#A1DFFF"/>
<rect x="57.6835" y="272" width="12" height="12" rx="2" transform="rotate(15 57.6835 272)" fill="#FF7A8A"/>
<rect x="337.683" width="12" height="12" rx="2" transform="rotate(15 337.683 0)" fill="#D59BF6"/>
<rect x="3.45939" y="178.999" width="11" height="11" rx="1.5" transform="rotate(15 3.45939 178.999)" stroke="#FFD05B"/>
</svg>
